<svg width="3767" height="931" xmlns="http://www.w3.org/2000/svg" xmlns:xlink="http://www.w3.org/1999/xlink" xml:space="preserve" overflow="hidden"><g transform="translate(-307 -609)"><g><text fill="#05577C" fill-opacity="1" font-family="Arial Rounded MT Bold,Arial Rounded MT Bold_MSFontService,sans-serif" font-style="normal" font-variant="normal" font-weight="700" font-stretch="normal" font-size="440" text-anchor="start" direction="ltr" writing-mode="lr-tb" unicode-bidi="normal" text-decoration="none" transform="matrix(1 0 0 1 574.03 1178)">Chem</text><path d="M1836.5 1013C1836.5 821.633 1991.63 666.5 2183 666.5 2374.37 666.5 2529.5 821.633 2529.5 1013 2529.5 1204.37 2374.37 1359.5 2183 1359.5 1991.63 1359.5 1836.5 1204.37 1836.5 1013Z" stroke="#000000" stroke-width="20.625" stroke-linecap="butt" stroke-linejoin="miter" stroke-miterlimit="8" stroke-opacity="1" fill="none" fill-rule="evenodd"/><path d="M2297 1167.5C2297 1131.33 2326.33 1102 2362.5 1102 2398.67 1102 2428 1131.33 2428 1167.5 2428 1203.67 2398.67 1233 2362.5 1233 2326.33 1233 2297 1203.67 2297 1167.5Z" stroke="#05577C" stroke-width="13.75" stroke-linecap="butt" stroke-linejoin="miter" stroke-miterlimit="8" stroke-opacity="1" fill="none" fill-rule="evenodd"/><path d="M1924 877C1924 844.415 1950.42 818 1983 818 2015.58 818 2042 844.415 2042 877 2042 909.585 2015.58 936 1983 936 1950.42 936 1924 909.585 1924 877Z" stroke="#05577C" stroke-width="13.75" stroke-linecap="butt" stroke-linejoin="miter" stroke-miterlimit="8" stroke-opacity="1" fill="none" fill-rule="evenodd"/><path d="M2215 797.5C2215 769.057 2238.28 746 2267 746 2295.72 746 2319 769.057 2319 797.5 2319 825.943 2295.72 849 2267 849 2238.28 849 2215 825.943 2215 797.5Z" stroke="#05577C" stroke-width="13.75" stroke-linecap="butt" stroke-linejoin="miter" stroke-miterlimit="8" stroke-opacity="1" fill="none" fill-rule="evenodd"/><path d="M2041.5 897.108 2122.03 941.717" stroke="#05577C" stroke-width="20.625" stroke-linecap="butt" stroke-linejoin="miter" stroke-miterlimit="8" stroke-opacity="1" fill="none" fill-rule="evenodd"/><path d="M0 0 74.0739 151.742" stroke="#05577C" stroke-width="20.625" stroke-linecap="butt" stroke-linejoin="miter" stroke-miterlimit="8" stroke-opacity="1" fill="none" fill-rule="evenodd" transform="matrix(-0.99863 -0.052336 -0.052336 0.99863 2184.31 1030.16)"/><path d="M0 0 131.357 11.2176" stroke="#05577C" stroke-width="20.625" stroke-linecap="butt" stroke-linejoin="miter" stroke-miterlimit="8" stroke-opacity="1" fill="none" fill-rule="evenodd" transform="matrix(1 0 0 -1 2234.5 992.718)"/><path d="M0 0 35.3898 103.337" stroke="#05577C" stroke-width="20.625" stroke-linecap="butt" stroke-linejoin="miter" stroke-miterlimit="8" stroke-opacity="1" fill="none" fill-rule="evenodd" transform="matrix(-1 0 0 1 2250.89 849.5)"/><path d="M2234.5 1026.5 2316.41 1121.51" stroke="#05577C" stroke-width="20.625" stroke-linecap="butt" stroke-linejoin="miter" stroke-miterlimit="8" stroke-opacity="1" fill="none" fill-rule="evenodd"/><path d="M2015.83 1181.63 2013.77 1172.87 2012.7 1163.59 2012.75 1154.43 2013.87 1145.47 2016.02 1136.79 2019.16 1128.44 2023.24 1120.51 2028.2 1113.04 2033.99 1106.09 2040.57 1099.72 2047.88 1093.96 2055.88 1088.86 2065.46 1083.99 2081.55 1081.21 2085.06 1101.54 2070.5 1104.05 2073.42 1103.08 2065.67 1107.02 2066.54 1106.52 2059.4 1111.07 2060.24 1110.48 2053.75 1115.59 2054.55 1114.89 2048.74 1120.52 2049.48 1119.72 2044.4 1125.82 2045.07 1124.92 2040.74 1131.44 2041.32 1130.45 2037.78 1137.34 2038.26 1136.26 2035.54 1143.49 2035.89 1142.33 2034.03 1149.84 2034.26 1148.64 2033.29 1156.38 2033.37 1155.15 2033.33 1163.08 2033.27 1161.85 2034.19 1169.92 2033.98 1168.73 2035.91 1176.9ZM2068.91 1040.8 2134.7 1087.26 2077.14 1143.6Z" fill="#626366" fill-rule="nonzero" fill-opacity="1"/><path d="M15.7763 16.8079 21.1942 9.707 27.3416 3.30521 33.9113-1.96004 40.8904-6.0264 48.2263-8.80461 55.8044-10.2026 63.4504-10.1676 70.9694-8.71925 78.1998-5.94378 85.0426-1.95571 91.4551 3.14022 97.4269 9.26681 102.958 16.3741 108.047 24.4318 112.687 33.4218 116.847 43.2992 119.97 52.2612 121.835 64.268 101.455 67.4342 99.7334 56.3533 100.186 58.1642 97.478 50.3952 97.712 51.004 93.8343 41.7972 94.1741 42.5235 89.9245 34.2886 90.3697 35.0664 85.7901 27.8155 86.3708 28.6422 81.5029 22.3873 82.2565 23.2518 77.1422 18.0049 78.111 18.8804 72.7922 14.6536 74.0155 15.4898 68.534 12.2951 70.031 13.0129 64.4286 10.8623 66.1737 11.3611 60.4923 10.2668 62.3957 10.4528 56.6771 10.4266 58.5951 10.2556 52.8811 11.3097 54.6626 10.8124 48.9952 12.9587 50.5344 12.2251 44.9553 15.4757 46.213 14.6124 40.764 18.9794 41.7532 18.075 36.4763 23.5703 37.2365 22.6831 32.1734 29.3189ZM161.216 48.3083 118.98 116.889 59.14 62.9786Z" fill="#000000" fill-rule="nonzero" fill-opacity="1" transform="matrix(-0.80404 -0.594575 -0.594575 0.80404 2229.01 878.923)"/><path d="M-3.59965 35.9735-1.68567 30.1392 0.727348 24.42 3.52991 19.0965 6.69837 14.19 10.2095 9.72318 14.0402 5.72039 18.167 2.20842 22.565-0.783101 27.2063-3.22159 32.058-5.07207 37.0806-6.29875 42.2269-6.86785 48.7844-6.72112 58.8993-0.723386 51.8864 11.1037 43.3219 6.02539 46.6746 6.98511 42.3754 6.88891 43.2849 6.84897 39.0347 7.31898 39.9102 7.16434 35.7376 8.18339 36.5565 7.92832 32.4902 9.47925 33.2378 9.14173 29.3062 11.2074 29.9752 10.8059 26.2069 13.3691 26.7959 12.9202 23.2195 15.9638 23.7308 15.4815 20.3747 18.9883 20.8129 18.4835 17.7058 22.4363 18.0761 21.9173 15.2465 26.2991 15.5546 25.7721 13.031 30.5656 13.2818 30.0355 11.0929 35.2236 11.2911 34.694 9.46529 40.2595ZM72.9466-25.154 81.1943 27.9042 27.5185 26.4488Z" fill="#D9D9D9" fill-rule="nonzero" fill-opacity="1" transform="matrix(-0.383145 -0.923688 -0.923688 0.383145 2310.48 939.341)"/><path d="M2402.44 1047.1 2399.65 1051.27 2396.21 1055.35 2392.4 1059 2388.11 1062.31 2379.14 1067.32 2369.31 1070.54 2363.94 1071.51 2358.64 1071.98 2353.26 1071.98 2347.86 1071.49 2342.46 1070.51 2337.11 1069.04 2331.84 1067.06 2326.63 1064.53 2319.15 1059.84 2313.01 1050.53 2324.49 1042.96 2329.81 1051.03 2327.72 1048.99 2333.62 1052.69 2332.96 1052.32 2337.54 1054.54 2336.97 1054.29 2341.66 1056.06 2341.06 1055.86 2345.82 1057.17 2345.22 1057.04 2350.01 1057.9 2349.4 1057.82 2354.19 1058.25 2353.58 1058.23 2358.34 1058.23 2357.72 1058.26 2362.41 1057.84 2361.8 1057.92 2366.39 1057.09 2365.47 1057.32 2374.23 1054.45 2373.02 1054.98 2380.97 1050.55 2380.11 1051.12 2383.7 1048.35 2383.15 1048.81 2386.44 1045.67 2385.93 1046.21 2388.89 1042.7 2388.44 1043.3 2391.02 1039.44ZM2290.9 1068.03 2303.64 1015.87 2352.65 1037.81Z" fill="#D9D9D9" fill-rule="nonzero" fill-opacity="1"/><path d="M54.8426-6.85631 61.0166-6.47905 67.5269-5.03509 73.7498-2.63404 79.6336 0.639307 85.1476 4.70338 90.2741 9.4861 95.0013 14.9257 99.318 20.9687 103.535 28.1153 106.791 39.9385 93.5346 43.5895 90.521 32.6474 91.2281 34.3156 87.6282 28.2144 87.9551 28.717 84.003 23.1844 84.408 23.6979 80.1317 18.7771 80.6311 19.2945 76.0587 15.0286 76.6696 15.5359 71.8289 11.9681 72.5655 12.4417 67.4847 9.61511 68.3522 10.0213 63.0591 7.97906 64.0453 8.27684 58.568 7.06201 59.6374 7.21232 54.004 6.86809ZM133.169 29.9531 109.179 102.979 65.1529 39.9717Z" fill="#BFBFBF" fill-rule="nonzero" fill-opacity="1" transform="matrix(-0.314988 0.949096 0.949096 0.314988 2225.04 1035.21)"/><path d="M2020 1224.5C2020 1193.3 2045.3 1168 2076.5 1168 2107.7 1168 2133 1193.3 2133 1224.5 2133 1255.7 2107.7 1281 2076.5 1281 2045.3 1281 2020 1255.7 2020 1224.5Z" fill="#156082" fill-rule="evenodd" fill-opacity="1"/><path d="M2351 976.5C2351 949.162 2373.16 927 2400.5 927 2427.84 927 2450 949.162 2450 976.5 2450 1003.84 2427.84 1026 2400.5 1026 2373.16 1026 2351 1003.84 2351 976.5Z" fill="#156082" fill-rule="evenodd" fill-opacity="1"/><path d="M2168.88 898.28C2219.7 881.468 2274.53 909.038 2291.34 959.858 2308.15 1010.68 2280.58 1065.5 2229.76 1082.32 2178.94 1099.13 2124.12 1071.56 2107.3 1020.74 2090.49 969.918 2118.06 915.092 2168.88 898.28Z" fill="#156082" fill-rule="evenodd" fill-opacity="1"/><text fill="#05577C" fill-opacity="1" font-family="Arial Rounded MT Bold,Arial Rounded MT Bold_MSFontService,sans-serif" font-style="normal" font-variant="normal" font-weight="700" font-stretch="normal" font-size="440" text-anchor="start" direction="ltr" writing-mode="lr-tb" unicode-bidi="normal" text-decoration="none" transform="matrix(1 0 0 1 2538.53 1178)">Prop2</text></g></g></svg>